<?xml version="1.0" encoding="UTF-8"?>
<svg width="125px" height="25px" viewBox="0 0 125 25" version="1.1" xmlns="http://www.w3.org/2000/svg" xmlns:xlink="http://www.w3.org/1999/xlink">
    <title>logo</title>
    <g id="Page-1" stroke="none" stroke-width="1" fill="none" fill-rule="evenodd">
        <g id="Assets" transform="translate(0.000000, -122.000000)" fill-rule="nonzero">
            <g id="logo" transform="translate(0.000000, 122.000000)">
                <g id="logo-icon">
                    <path d="M5.93425915,8.14364383 C5.85882365,8.57900707 5.72052524,9.02680927 5.58222682,9.51192831 C5.31820258,10.4199716 5.01646059,11.4648434 5.01646059,12.5221542 C5.01646059,13.5794649 5.31820258,14.6243367 5.58222682,15.53238 C5.72052524,16.0174991 5.85882365,16.4777402 5.93425915,16.9006645 C5.99712206,17.2613941 5.83367848,17.5972457 5.50679133,17.7589521 C5.17990417,17.9330973 4.80272668,17.8709026 4.53870244,17.6096847 L0.440040403,13.554587 C0.150870995,13.2684912 0,12.8828837 0,12.4972763 C0,12.1116688 0.150870995,11.7385003 0.440040403,11.4399655 L4.53870244,7.38486789 C4.80272668,7.12364994 5.17990417,7.07389414 5.50679133,7.23560049 C5.84625107,7.45950159 6.00969464,7.79535323 5.93425915,8.14364383 L5.93425915,8.14364383 Z" id="Path" fill="#00AEEF"></path>
                    <path d="M8.10969438,19.0649969 C8.54657925,19.1404418 8.99594655,19.2787576 9.48276113,19.4170733 C10.3939781,19.6811307 11.4425018,19.9829105 12.503508,19.9829105 C13.5645141,19.9829105 14.6130378,19.6811307 15.5242548,19.4170733 C16.0110694,19.2787576 16.4729191,19.1404418 16.8973215,19.0649969 C17.2593119,19.0021261 17.5963373,19.1655901 17.7586089,19.4925183 C17.9333628,19.8194464 17.8709507,20.1966712 17.6088198,20.4607285 L13.5395492,24.5599044 C13.2524535,24.8491101 12.8654983,25 12.4785431,25 C12.0915879,25 11.7171152,24.8491101 11.417537,24.5599044 L7.38571373,20.4481544 C7.12358281,20.184097 7.07365311,19.8068722 7.23592463,19.4799441 C7.41067858,19.1655901 7.74770406,18.9895519 8.10969438,19.0649969 L8.10969438,19.0649969 Z" id="Path" fill="#FFBE0D"></path>
                    <path d="M16.8903056,5.93871379 C16.4534207,5.86306138 16.0040534,5.72436531 15.5172389,5.58566923 C14.6060219,5.32088581 13.5574982,5.01827619 12.496492,5.01827619 C11.4354859,5.01827619 10.3869622,5.32088581 9.4757452,5.58566923 C8.98893063,5.72436531 8.5270809,5.86306138 8.10267845,5.93871379 C7.74068813,6.00175746 7.40366266,5.83784391 7.24139113,5.51001682 C7.06663718,5.18218974 7.12904931,4.80392771 7.39118023,4.5391443 L11.4604508,0.428696961 C11.7225817,0.15130481 12.1095369,0 12.4840096,0 C12.8709648,0 13.2454375,0.15130481 13.5450157,0.441305695 L17.6142863,4.55175303 C17.8764172,4.81653645 17.9263469,5.19479847 17.7640754,5.52262556 C17.5909316,5.83585561 17.2396923,6.00311538 16.8903056,5.93871379 L16.8903056,5.93871379 Z" id="Path" fill="#FE4A49"></path>
                    <path d="M19.0608998,16.8563562 C19.1363968,16.4209929 19.2748081,15.9731907 19.4132193,15.4880717 C19.6774589,14.5800284 19.9794471,13.5351566 19.9794471,12.4778458 C19.9794471,11.4205351 19.6774589,10.3756633 19.4132193,9.46761997 C19.2748081,8.98250093 19.1363968,8.52225978 19.0608998,8.09933549 C18.9979856,7.73860594 19.1615625,7.4027543 19.4887163,7.24104795 C19.8158702,7.06690265 20.1933554,7.1290974 20.457595,7.39031535 L24.5596006,11.445413 C24.8490059,11.7315088 25,12.1171163 25,12.5027237 C25,12.8883312 24.8490059,13.2614997 24.5596006,13.5600345 L20.457595,17.6151321 C20.1933554,17.8763501 19.8158702,17.9261059 19.4887163,17.7643995 C19.1615625,17.5529374 18.9979856,17.2170857 19.0608998,16.8563562 L19.0608998,16.8563562 Z" id="Path" fill="#3DDC97"></path>
                </g>
                <path d="M75.8599921,7.01214361 L71.6293137,14.3104541 L71.6169794,14.3347413 L71.6169794,18.4878564 L68.5827319,18.4878564 L68.5827319,14.3347413 L68.5703976,14.3104541 L64.3397192,7.01214361 L67.5096444,7.01214361 L70.0258496,11.3474129 L70.0998557,11.4809926 L70.1738617,11.3474129 L72.6900669,7.01214361 L75.8599921,7.01214361 Z M124.753313,7.01214361 L120.214276,12.0760296 L125,18.4878564 L121.521716,18.4878564 L118.253116,14.2011616 L116.970345,15.6098205 L116.970345,18.4757128 L113.985435,18.4757128 L113.985435,7.01214361 L116.970345,7.01214361 L116.970345,11.9910243 L121.472379,7.01214361 L124.753313,7.01214361 Z M106.794515,7.01214361 L106.794515,9.52587117 L100.491668,9.52587117 L100.491668,11.4809926 L106.794515,11.4809926 L106.794515,13.9947202 L100.491668,13.9947202 L100.491668,15.9498416 L106.794515,15.9498416 L106.794515,18.4757128 L97.482089,18.4757128 L97.482089,7.01214361 L106.794515,7.01214361 Z M91.1299042,7.01214361 L81.015746,7.01214361 L81.015746,9.52587117 L84.4816953,9.52587117 L84.4816953,18.4757128 L87.6762892,18.4757128 L87.6762892,9.52587117 L91.1299042,9.52587117 L91.1299042,7.01214361 Z M41.9282246,7.01214361 L41.9282246,9.70802534 L37.1918383,9.70802534 C35.4896995,9.70802534 34.0959192,11.0681098 34.0959192,12.7560718 C34.0959192,14.4318902 35.4773652,15.8041183 37.1918383,15.8041183 L41.9282246,15.8041183 L41.9282246,18.5 L36.7354678,18.5 C33.5655426,18.4878564 31,15.9498416 31,12.8410771 L31,12.6589229 C31,9.55015839 33.5655426,7.01214361 36.7354678,7.01214361 L41.9282246,7.01214361 Z M55.2493111,7.01214361 C57.6421729,7.01214361 59.5909986,8.93083421 59.5909986,11.2866948 L59.5909986,11.5052798 C59.5909986,12.8775079 58.9126099,14.1768743 57.7778507,14.9783527 L57.7408477,15.0026399 L57.7408477,15.0755016 L59.9980318,18.4635692 L56.7911035,18.4635692 L55.0149587,15.779831 L52.338407,15.779831 L52.338407,18.4635692 L49.3164939,18.4635692 L49.3164939,7 L55.2493111,7 M52.3507414,13.2903907 L54.9656213,13.2903907 C55.9523685,13.2903907 56.7541005,12.501056 56.7541005,11.5295671 L56.7541005,11.310982 C56.7541005,10.3394931 55.9523685,9.55015839 54.9656213,9.55015839 L52.3507414,9.55015839 L52.3507414,13.2903907 Z" id="crytek" fill="#FFFFFF"></path>
            </g>
        </g>
    </g>
</svg>