<?xml version="1.0" encoding="UTF-8"?>
<svg width="56px" height="56px" viewBox="0 0 56 56" version="1.1" xmlns="http://www.w3.org/2000/svg" xmlns:xlink="http://www.w3.org/1999/xlink">
    <!-- Generator: Sketch 52.5 (67469) - http://www.bohemiancoding.com/sketch -->
    <title>Group 2</title>
    <desc>Created with Sketch.</desc>
    <g id="Mobile" stroke="none" stroke-width="1" fill="none" fill-rule="evenodd">
        <g id="MOBILEhome-Copy-13" transform="translate(-160.000000, -183.000000)">
            <g id="Group-2" transform="translate(160.000000, 183.000000)">
                <circle id="Oval" fill="#FFFFFF" cx="28" cy="28" r="28"></circle>
                <g id="check-mark" transform="translate(17.000000, 20.000000)" fill="#09C3BC" fill-rule="nonzero">
                    <path d="M9.05319358,14.3158605 C8.14643006,15.2280465 6.67512746,15.2280465 5.76880156,14.3158605 L0.680072646,9.1967011 C-0.226690882,8.28495539 -0.226690882,6.80485443 0.680072646,5.89310871 C1.58639855,4.98092275 3.05770114,4.98092275 3.96446467,5.89310871 L6.99634581,8.94268021 C7.22522483,9.17248767 7.59677031,9.17248767 7.82608696,8.94268021 L16.0355353,0.684139469 C16.9418612,-0.22804649 18.4131638,-0.22804649 19.3199274,0.684139469 C19.7553664,1.12218244 20,1.71651209 20,2.33593567 C20,2.95535924 19.7553664,3.54968889 19.3199274,3.98773186 L9.05319358,14.3158605 Z" id="Path"></path>
                </g>
            </g>
        </g>
    </g>
</svg>