<?xml version="1.0" encoding="UTF-8"?>
<svg width="21px" height="22px" viewBox="0 0 21 22" version="1.1" xmlns="http://www.w3.org/2000/svg" xmlns:xlink="http://www.w3.org/1999/xlink">
    <!-- Generator: Sketch 52.5 (67469) - http://www.bohemiancoding.com/sketch -->
    <title>garbage</title>
    <desc>Created with Sketch.</desc>
    <g id="Mobile" stroke="none" stroke-width="1" fill="none" fill-rule="evenodd">
        <g id="MOBILEhome-Copy-8" transform="translate(-340.000000, -663.000000)" fill="#EF5934" fill-rule="nonzero" stroke="#EF5934">
            <g id="garbage" transform="translate(341.000000, 663.000000)">
                <path d="M18.4070735,3.22727307 L13.9623209,3.22727307 L13.9623209,2.51489643 C13.9623209,1.24125333 12.9082293,0.205069124 11.6125751,0.205069124 L7.38742487,0.205069124 C6.09177069,0.205069124 5.03767915,1.24125333 5.03767915,2.51489643 L5.03767915,3.22727307 L0.592926491,3.22727307 C0.263522885,3.22727307 0,3.48631912 0,3.81012669 C0,4.13393426 0.263522885,4.39298031 0.592926491,4.39298031 L1.66458622,4.39298031 L1.66458622,18.0878816 C1.66458622,19.8062204 3.0876098,21.2050691 4.83564494,21.2050691 L14.1643551,21.2050691 C15.9123902,21.2050691 17.3354138,19.8062204 17.3354138,18.0878816 L17.3354138,4.39298031 L18.4070735,4.39298031 C18.7364771,4.39298031 19,4.13393426 19,3.81012669 C19,3.48631912 18.7364771,3.22727307 18.4070735,3.22727307 Z M6.22353213,2.51489643 C6.22353213,1.88455103 6.74618585,1.37077636 7.38742487,1.37077636 L11.6125751,1.37077636 C12.2538141,1.37077636 12.7764679,1.88455103 12.7764679,2.51489643 L12.7764679,3.22727307 L6.22353213,3.22727307 L6.22353213,2.51489643 Z M16.1495608,18.0878816 C16.1495608,19.1629227 15.257975,20.0393619 14.1643551,20.0393619 L4.83564494,20.0393619 C3.74202497,20.0393619 2.8504392,19.1629227 2.8504392,18.0878816 L2.8504392,4.39298031 L16.1539528,4.39298031 L16.1539528,18.0878816 L16.1495608,18.0878816 Z" id="Shape" stroke-width="0.25"></path>
                <path d="M9.5,15.7050691 C9.77777778,15.7050691 10,15.5243462 10,15.2984426 L10,8.11169563 C10,7.88579202 9.77777778,7.70506912 9.5,7.70506912 C9.22222222,7.70506912 9,7.88579202 9,8.11169563 L9,15.2954306 C9,15.5213342 9.22222222,15.7050691 9.5,15.7050691 Z" id="Path" stroke-width="0.5"></path>
                <path d="M6.5,15.7050691 C6.77777778,15.7050691 7,15.5015931 7,15.247248 L7,8.16289024 C7,7.90854517 6.77777778,7.70506912 6.5,7.70506912 C6.22222222,7.70506912 6,7.90854517 6,8.16289024 L6,15.247248 C6,15.5015931 6.22592593,15.7050691 6.5,15.7050691 Z" id="Path" stroke-width="0.5"></path>
                <path d="M12.5,15.7050691 C12.7777778,15.7050691 13,15.5015931 13,15.247248 L13,8.16289024 C13,7.90854517 12.7777778,7.70506912 12.5,7.70506912 C12.2222222,7.70506912 12,7.90854517 12,8.16289024 L12,15.247248 C12,15.5015931 12.2222222,15.7050691 12.5,15.7050691 Z" id="Path" stroke-width="0.5"></path>
            </g>
        </g>
    </g>
</svg>