<?xml version="1.0" encoding="UTF-8"?>
<svg width="36px" height="36px" viewBox="0 0 36 36" version="1.1" xmlns="http://www.w3.org/2000/svg" xmlns:xlink="http://www.w3.org/1999/xlink">
    <title>delivery</title>
    <g id="Page-2" stroke="none" stroke-width="1" fill="none" fill-rule="evenodd">
        <g id="Desktop-HD" transform="translate(-401.000000, -695.000000)" fill="#888888" fill-rule="nonzero">
            <g id="delivery" transform="translate(401.000000, 695.000000)">
                <path d="M35.6529375,0.04275 C35.5831875,0.0135 35.5100625,0.0050625 35.4375,0.0050625 L35.4375,0 L28.125,0 L21.375,0 L14.625,0 C14.475375,0 14.3325,0.0590625 14.2273125,0.1648125 L7.477875,6.91425 C7.3760625,7.0160625 7.3125,7.1566875 7.3125,7.3125 L7.3125,21.375 C7.3125,21.6860625 7.5639375,21.9375 7.875,21.9375 L28.6875,21.9375 C28.8433125,21.9375 28.9839375,21.8739375 29.08575,21.772125 L35.8351875,15.0226875 C35.9409375,14.9175 36,14.774625 36,14.625 L36,0.5625 C36,0.33525 35.8633125,0.129375 35.6529375,0.04275 Z M28.454625,6.75 L22.732875,6.75 L28.357875,1.125 L34.079625,1.125 L28.454625,6.75 Z M26.767125,1.125 L20.9773125,6.9148125 C20.8715625,7.02 20.8125,7.162875 20.8125,7.3125 L20.8125,12.44925 L19.9996875,11.907 C19.8106875,11.7804375 19.564875,11.7804375 19.375875,11.907 L18,12.823875 L16.6246875,11.907 C16.5301875,11.844 16.4210625,11.8125 16.3125,11.8125 C16.2039375,11.8125 16.0948125,11.844 16.0003125,11.907 L15.1875,12.44925 L15.1875,7.545375 L21.607875,1.125 L26.767125,1.125 Z M20.017125,1.125 L14.392125,6.75 L9.232875,6.75 L14.857875,1.125 L20.017125,1.125 Z" id="Shape"></path>
                <path d="M10.6875,33.1875 C10.9985625,33.1875 11.25,32.9360625 11.25,32.625 L12.80475,32.625 L18.8184375,35.632125 C19.0783125,35.7620625 19.360125,35.8273125 19.6408125,35.8273125 C19.960875,35.8273125 20.280375,35.7435 20.5666875,35.5764375 L32.8381875,28.4175 C33.4006875,28.0895625 33.75,27.4815 33.75,26.830125 C33.75,26.2861875 33.5109375,25.7731875 33.0946875,25.42275 C32.679,25.072875 32.131125,24.9255 31.59675,25.0183125 L20.44125,26.958375 L17.2726875,23.7898125 C17.1675,23.6840625 17.024625,23.625 16.875,23.625 L11.25,23.625 C11.25,23.3139375 10.9985625,23.0625 10.6875,23.0625 L8.4375,23.0625 L0,23.0625 L0,24.1875 L7.875,24.1875 L7.875,32.0625 L0,32.0625 L0,33.1875 L8.4375,33.1875 L10.6875,33.1875 Z M16.642125,24.75 L21.0740625,29.1819375 C21.2653125,29.3731875 21.375,29.638125 21.375,29.90925 C21.375,30.47625 20.91375,30.9375 20.34675,30.9375 C20.0761875,30.9375 19.8106875,30.8278125 19.6194375,30.6365625 L16.7101875,27.7273125 L15.9148125,28.5226875 L18.8240625,31.4319375 C19.23075,31.838625 19.7713125,32.0625 20.34675,32.0625 C21.533625,32.0625 22.5,31.096125 22.5,29.90925 C22.5,29.334375 22.276125,28.79325 21.8694375,28.3865625 L21.4138125,27.9309375 L31.7885625,26.1264375 C31.998375,26.08875 32.20875,26.14725 32.3701875,26.283375 C32.5321875,26.4195 32.625,26.618625 32.625,26.8295625 C32.625,27.082125 32.4894375,27.318375 32.2711875,27.4455 L20.00025,34.6044375 C19.792125,34.7259375 19.5384375,34.7338125 19.321875,34.6258125 L13.1895,31.559625 C13.1113125,31.52025 13.0246875,31.5 12.9375,31.5 L11.25,31.5 L11.25,24.75 L16.642125,24.75 Z M10.125,32.0625 L9,32.0625 L9,24.1875 L10.125,24.1875 L10.125,32.0625 Z" id="Shape"></path>
                <path d="M5.0625,5.0625 C5.0625,5.3735625 5.3139375,5.625 5.625,5.625 C5.9360625,5.625 6.1875,5.3735625 6.1875,5.0625 C6.1875,4.132125 6.944625,3.375 7.875,3.375 C8.1860625,3.375 8.4375,3.1235625 8.4375,2.8125 C8.4375,2.5014375 8.1860625,2.25 7.875,2.25 C6.944625,2.25 6.1875,1.492875 6.1875,0.5625 C6.1875,0.2514375 5.9360625,0 5.625,0 C5.3139375,0 5.0625,0.2514375 5.0625,0.5625 C5.0625,1.492875 4.305375,2.25 3.375,2.25 C3.0639375,2.25 2.8125,2.5014375 2.8125,2.8125 C2.8125,3.1235625 3.0639375,3.375 3.375,3.375 C4.305375,3.375 5.0625,4.132125 5.0625,5.0625 Z M5.625,2.2483125 C5.7853125,2.4620625 5.9754375,2.6521875 6.1891875,2.8125 C5.9754375,2.9728125 5.7853125,3.1629375 5.625,3.3766875 C5.4646875,3.1629375 5.2745625,2.9728125 5.0608125,2.8125 C5.2745625,2.6521875 5.4646875,2.4620625 5.625,2.2483125 Z" id="Shape"></path>
            </g>
        </g>
    </g>
</svg>