<?xml version="1.0" encoding="UTF-8"?>
<svg width="48px" height="36px" viewBox="0 0 48 36" version="1.1" xmlns="http://www.w3.org/2000/svg" xmlns:xlink="http://www.w3.org/1999/xlink">
    <title>free</title>
    <g id="Page-2" stroke="none" stroke-width="1" fill="none" fill-rule="evenodd" stroke-linecap="round" stroke-linejoin="round">
        <g id="Desktop-HD" transform="translate(-352.000000, -620.000000)" stroke="#888888" stroke-width="2">
            <g id="free" transform="translate(353.000000, 620.000000)">
                <polyline id="Path" points="13.0909091 34.3636364 45.8181818 34.3636364 45.8181818 1.63636364 13.0909091 1.63636364"></polyline>
                <g id="Group" transform="translate(6.545455, 19.636364)">
                    <g id="Path">
                        <polyline points="4.90909091 0 0 0 0 9.81818182"></polyline>
                        <line x1="3.27272727" y1="4.90909091" x2="0" y2="4.90909091"></line>
                    </g>
                    <polyline id="Path" points="24.5454545 0 19.6363636 0 19.6363636 9.81818182 24.5454545 9.81818182"></polyline>
                    <line x1="22.9090909" y1="4.90909091" x2="19.6363636" y2="4.90909091" id="Path"></line>
                    <polyline id="Path" points="34.3636364 0 29.4545455 0 29.4545455 9.81818182 34.3636364 9.81818182"></polyline>
                    <line x1="32.7272727" y1="4.90909091" x2="29.4545455" y2="4.90909091" id="Path"></line>
                    <path d="M9.81818182,9.81818182 L9.81818182,0 L13.0909091,0 C14.0727273,0 14.7272727,0.654545455 14.7272727,1.63636364 L14.7272727,3.27272727 C14.7272727,4.25454545 14.0727273,4.90909091 13.0909091,4.90909091 L9.81818182,4.90909091" id="Path"></path>
                    <path d="M12.2727273,4.90909091 L12.2727273,4.90909091 C13.5818182,4.90909091 14.7272727,6.05454545 14.7272727,7.36363636 L14.7272727,9.81818182" id="Path"></path>
                </g>
                <line x1="8.18181818" y1="34.3636364" x2="0" y2="34.3636364" id="Path"></line>
                <line x1="6.54545455" y1="1.63636364" x2="0" y2="1.63636364" id="Path"></line>
                <line x1="14.7272727" y1="8.18181818" x2="8.18181818" y2="8.18181818" id="Path"></line>
                <line x1="6.54545455" y1="14.7272727" x2="0" y2="14.7272727" id="Path"></line>
                <polygon id="Path" fill="#888888" points="34.3636364 11.2909091 29.4545455 9.81818182 24.5454545 11.2909091 24.5454545 1.63636364 34.3636364 1.63636364"></polygon>
                <line x1="3.27272727" y1="8.18181818" x2="0" y2="8.18181818" id="Path"></line>
                <line x1="1.63636364" y1="24.5454545" x2="0" y2="24.5454545" id="Path"></line>
            </g>
        </g>
    </g>
</svg>