<?xml version="1.0" encoding="UTF-8"?>
<svg width="28px" height="36px" viewBox="0 0 28 36" version="1.1" xmlns="http://www.w3.org/2000/svg" xmlns:xlink="http://www.w3.org/1999/xlink">
    <title>lock</title>
    <g id="Page-2" stroke="none" stroke-width="1" fill="none" fill-rule="evenodd">
        <g id="Desktop-HD" transform="translate(-261.000000, -695.000000)" fill="#888888" fill-rule="nonzero">
            <g id="lock" transform="translate(261.000000, 695.000000)">
                <path d="M22.5117037,15.7245926 L22.5117037,8.98548148 C22.5117037,4.03214815 18.4821481,0 13.5263704,0 C8.572,0 4.54103704,4.03214815 4.54103704,8.98548148 L4.54103704,15.7245926 C2.0597037,15.7245926 0.0482222222,17.7362963 0.0482222222,20.217037 L0.0482222222,31.4488148 C0.0482222222,33.9302963 2.0597037,35.9416296 4.54103704,35.9416296 L22.5117037,35.9416296 C24.9925185,35.9416296 27.0045185,33.9302963 27.0045185,31.4488148 L27.0045185,20.217037 C27.0045185,17.7362222 24.9925185,15.7245926 22.5117037,15.7245926 Z M14.6496296,26.6116296 L14.6496296,30.3256296 C14.6496296,30.9465185 14.1473333,31.4488148 13.5264444,31.4488148 C12.9055556,31.4488148 12.4031852,30.9465185 12.4031852,30.3256296 L12.4031852,26.6116296 C11.7439259,26.2213333 11.2801481,25.5323704 11.2801481,24.7099259 C11.2801481,23.4680741 12.286,22.4634815 13.5263704,22.4634815 C14.7667407,22.4634815 15.7727407,23.4680741 15.7727407,24.7099259 C15.7728148,25.5323704 15.3085185,26.2214074 14.6496296,26.6116296 Z M18.0188889,15.7245926 L9.0337037,15.7245926 L9.0337037,8.98548148 C9.0337037,6.50659259 11.0485185,4.49266667 13.5263704,4.49266667 C16.003037,4.49266667 18.0188889,6.50659259 18.0188889,8.98548148 L18.0188889,15.7245926 L18.0188889,15.7245926 Z" id="Shape"></path>
            </g>
        </g>
    </g>
</svg>