<?xml version="1.0" encoding="UTF-8"?>
<svg width="50px" height="36px" viewBox="0 0 50 36" version="1.1" xmlns="http://www.w3.org/2000/svg" xmlns:xlink="http://www.w3.org/1999/xlink">
    <title>truck</title>
    <g id="Page-2" stroke="none" stroke-width="1" fill="none" fill-rule="evenodd">
        <g id="Desktop-HD" transform="translate(-320.000000, -695.000000)" fill="#888888" fill-rule="nonzero">
            <g id="truck" transform="translate(320.000000, 695.000000)">
                <path d="M42.75,9 L36,9 L36,0 L4.5,0 C2.025,0 0,2.025 0,4.5 L0,29.25 L4.5,29.25 C4.5,32.985 7.515,36 11.25,36 C14.985,36 18,32.985 18,29.25 L31.5,29.25 C31.5,32.985 34.515,36 38.25,36 C41.985,36 45,32.985 45,29.25 L49.5,29.25 L49.5,18 L42.75,9 Z M11.25,32.625 C9.3825,32.625 7.875,31.1175 7.875,29.25 C7.875,27.3825 9.3825,25.875 11.25,25.875 C13.1175,25.875 14.625,27.3825 14.625,29.25 C14.625,31.1175 13.1175,32.625 11.25,32.625 Z M41.625,12.375 L46.035,18 L36,18 L36,12.375 L41.625,12.375 Z M38.25,32.625 C36.3825,32.625 34.875,31.1175 34.875,29.25 C34.875,27.3825 36.3825,25.875 38.25,25.875 C40.1175,25.875 41.625,27.3825 41.625,29.25 C41.625,31.1175 40.1175,32.625 38.25,32.625 Z" id="Shape"></path>
            </g>
        </g>
    </g>
</svg>