<?xml version="1.0" encoding="UTF-8"?>
<svg width="18px" height="18px" viewBox="0 0 18 18" version="1.1" xmlns="http://www.w3.org/2000/svg" xmlns:xlink="http://www.w3.org/1999/xlink">
    <!-- Generator: Sketch 52.5 (67469) - http://www.bohemiancoding.com/sketch -->
    <title>whatsapp-logo-variant</title>
    <desc>Created with Sketch.</desc>
    <g id="Mobile" stroke="none" stroke-width="1" fill="none" fill-rule="evenodd">
        <g id="MOBILEhome-Copy-6" transform="translate(-133.000000, -1366.000000)" fill="#735683" fill-rule="nonzero">
            <g id="whatsapp-logo-variant" transform="translate(133.000000, 1366.000000)">
                <g id="whatsapp">
                    <path d="M9.00225,0 L8.99775,0 C4.035375,0 0,4.0365 0,9 C0,10.96875 0.6345,12.7935 1.713375,14.275125 L0.59175,17.618625 L4.051125,16.51275 C5.47425,17.4555 7.171875,18 9.00225,18 C13.964625,18 18,13.962375 18,9 C18,4.037625 13.964625,0 9.00225,0 Z M14.239125,12.709125 C14.022,13.32225 13.16025,13.83075 12.472875,13.97925 C12.002625,14.079375 11.388375,14.15925 9.320625,13.302 C6.67575,12.20625 4.9725,9.518625 4.83975,9.34425 C4.712625,9.169875 3.771,7.921125 3.771,6.629625 C3.771,5.338125 4.426875,4.70925 4.69125,4.43925 C4.908375,4.217625 5.26725,4.116375 5.6115,4.116375 C5.722875,4.116375 5.823,4.122 5.913,4.1265 C6.177375,4.13775 6.310125,4.1535 6.4845,4.570875 C6.701625,5.094 7.230375,6.3855 7.293375,6.51825 C7.3575,6.651 7.421625,6.831 7.331625,7.005375 C7.24725,7.185375 7.173,7.26525 7.04025,7.41825 C6.9075,7.57125 6.7815,7.68825 6.64875,7.8525 C6.52725,7.995375 6.39,8.148375 6.543,8.41275 C6.696,8.6715 7.22475,9.534375 8.00325,10.227375 C9.007875,11.12175 9.822375,11.4075 10.11375,11.529 C10.330875,11.619 10.589625,11.597625 10.74825,11.428875 C10.949625,11.21175 11.19825,10.85175 11.451375,10.497375 C11.631375,10.243125 11.858625,10.211625 12.097125,10.301625 C12.340125,10.386 13.626,11.021625 13.890375,11.15325 C14.15475,11.286 14.329125,11.349 14.39325,11.460375 C14.45625,11.57175 14.45625,12.094875 14.239125,12.709125 Z" id="Shape"></path>
                </g>
            </g>
        </g>
    </g>
</svg>